# This file uses centimeters as units for non-parametric coordinates.

mtllib OutsideCorner_LP.mtl
g default
v 3.000000 -0.000002 -1.999999
v 3.000000 0.000000 -2.500000
v 3.000000 -0.000002 -3.000000
v 3.000000 0.999998 -2.000003
v 3.000000 0.999998 -2.499997
v 3.000000 0.500000 -3.000000
v 0.000000 0.500000 -3.000000
v 0.000000 -0.000001 -2.000001
v 0.000000 0.000001 -2.500002
v 0.000000 -0.000003 -3.000000
v 1.000001 -0.000002 -3.000000
v 0.500000 0.000000 -3.000000
v 0.000000 -0.000002 -3.000000
v 0.000000 0.500000 -3.000000
v 1.000000 0.999997 0.000000
v 0.500001 0.999998 0.000000
v 0.000000 0.500000 0.000000
v 0.999999 -0.000001 0.000000
v 0.499998 0.000001 0.000000
v 0.000000 -0.000003 0.000000
v 1.002637 0.999997 -2.000001
v 0.502639 0.999998 -2.499999
v 0.002638 0.500000 -3.000000
v 1.002638 -0.000002 -2.000000
v 0.502636 0.000001 -2.500002
v 0.002638 -0.000003 -3.000000
v 0.002638 -0.000002 -3.000000
v 0.002638 0.502638 -3.000000
v 0.999998 0.999997 -2.002640
v 0.500003 0.999998 -2.502635
v 1.000000 -0.000002 -2.002638
v 0.499999 0.000000 -2.502639
vt 0.415838 0.765765
vt 0.415839 0.670782
vt 0.605805 0.670782
vt 0.605805 0.765764
vt 0.415838 0.575798
vt 0.510822 0.575798
vt 0.497221 0.571807
vt 0.497221 0.001908
vt 0.592205 0.001908
vt 0.592205 0.571807
vt 0.687187 0.477324
vt 0.592706 0.571807
vt 0.687187 0.001908
vt 0.808042 0.955731
vt 0.808042 0.575297
vt 0.998008 0.575297
vt 0.998008 0.955731
vt 0.694065 0.001908
vt 0.789047 0.001908
vt 0.789048 0.476322
vt 0.694065 0.381339
vt 0.884031 0.001908
vt 0.884031 0.571306
vt 0.191958 0.571807
vt 0.096975 0.571807
vt 0.096975 0.476323
vt 0.191958 0.381339
vt 0.001992 0.571807
vt 0.001992 0.571306
vt 0.096975 0.001908
vt 0.191959 0.001908
vt 0.001992 0.001908
vt 0.490343 0.571807
vt 0.395359 0.571807
vt 0.395360 0.096390
vt 0.490343 0.191373
vt 0.300377 0.571807
vt 0.300377 0.001908
vt 0.300878 0.001908
vt 0.395360 0.001908
vt 0.490343 0.001908
vt 0.985892 0.382342
vt 0.890909 0.477324
vt 0.890909 0.001908
vt 0.985892 0.001908
vt 0.294015 0.001908
vt 0.294015 0.571306
vt 0.199031 0.571306
vt 0.199031 0.001908
vt 0.294015 0.571807
vt 0.199031 0.571807
vt 0.409703 0.765765
vt 0.314720 0.765765
vt 0.314719 0.575799
vt 0.409703 0.575799
vt 0.219737 0.670782
vt 0.219737 0.575798
vt 0.801906 0.955230
vt 0.611940 0.955230
vt 0.611940 0.575798
vt 0.801907 0.575798
vt 0.213601 0.575798
vt 0.213601 0.671283
vt 0.213100 0.671283
vt 0.213100 0.576299
vn 1.000000 0.000000 0.000000
vn 1.000000 0.000000 0.000000
vn 1.000000 0.000000 0.000000
vn 1.000000 0.000000 0.000000
vn 1.000000 0.000000 0.000000
vn 1.000000 0.000000 0.000000
vn -0.000000 1.000000 0.000002
vn 0.000000 0.876197 -0.481953
vn 0.000000 0.791228 -0.611522
vn -0.000000 1.000000 0.000002
vn 0.000000 0.707109 -0.707104
vn 0.000000 0.707109 -0.707104
vn -0.000000 -1.000000 -0.000005
vn -0.000000 -1.000000 -0.000002
vn -0.000000 -1.000000 0.000002
vn -0.000000 -1.000000 -0.000005
vn -0.000000 -1.000000 0.000008
vn -0.000000 -1.000000 0.000006
vn 0.000000 0.000000 -1.000000
vn 0.000000 0.000000 -1.000000
vn 0.000000 0.000000 -1.000000
vn 0.000000 0.000000 -1.000000
vn 0.000000 0.000000 1.000000
vn 0.000000 0.000000 1.000000
vn 0.000000 0.000000 1.000000
vn 0.000000 0.000000 1.000000
vn 0.000000 0.000000 1.000000
vn 0.000000 0.000000 1.000000
vn -0.000005 -1.000000 0.000000
vn 0.000001 -1.000000 0.000000
vn 0.000002 -1.000000 0.000000
vn -0.000005 -1.000000 0.000000
vn 0.000006 -1.000000 -0.000000
vn 0.000006 -1.000000 -0.000000
vn 0.000006 -1.000000 -0.000000
vn -1.000000 0.000000 0.000000
vn -1.000000 0.000000 0.000000
vn -1.000000 0.000000 0.000000
vn -1.000000 0.000000 0.000000
vn 1.000000 0.000000 -0.000000
vn 1.000000 0.000000 -0.000000
vn 1.000000 0.000000 -0.000000
vn 1.000000 0.000000 -0.000000
vn -0.000000 -1.000000 0.000001
vn -0.000000 -1.000000 -0.000005
vn 0.000000 -1.000000 0.000006
vn 0.000000 0.000000 -1.000000
vn 0.000000 0.000000 -1.000000
vn 0.000000 0.000002 1.000000
vn 0.000000 0.000002 1.000000
vn 0.000000 0.000002 1.000000
vn 0.000000 0.000002 1.000000
vn 0.000000 0.000000 -1.000000
vn 0.000000 0.000000 -1.000000
vn 0.000000 0.000000 -1.000000
vn 0.000000 0.000000 -1.000000
vn 0.000003 1.000000 0.000000
vn -0.611484 0.791257 -0.000000
vn -0.481881 0.876237 -0.000000
vn 0.000003 1.000000 0.000000
vn -0.707104 0.707109 -0.000000
vn -0.707104 0.707109 -0.000000
vn -0.707104 0.707109 -0.000000
vn -0.000003 -1.000000 0.000000
vn -0.000005 -1.000000 0.000000
s 1
g Wall10
usemtl initialShadingGroup
f 1/1/1 2/2/2 5/3/3 4/4/4
f 2/2/2 3/5/5 6/6/6 5/3/3
s 2
f 4/18/7 5/19/8 22/20/9 21/21/10
f 5/19/8 6/22/11 23/23/12 22/20/9
s 3
f 8/24/13 9/25/14 25/26/15 24/27/16
f 9/25/14 10/28/17 26/29/18 25/26/15
s 4
f 3/46/19 26/47/20 23/48/21 6/49/22
s 5
f 15/52/23 16/53/24 19/54/25 18/55/26
f 16/53/24 17/56/27 20/57/28 19/54/25
s 6
f 18/33/29 19/34/30 32/35/31 31/36/32
f 19/34/30 20/37/33 13/38/34 27/39/35 32/35/31
s off
f 13/7/36 20/8/37 17/9/38 14/10/39
f 18/14/40 31/15/41 29/16/42 15/17/43
s 3
f 24/27/16 25/26/15 2/30/44 1/31/45
f 25/26/15 26/29/18 3/32/46 2/30/44
s 4
f 23/48/21 26/47/20 10/50/47 7/51/48
s off
f 21/58/49 24/59/50 1/60/51 4/61/52
f 28/62/53 27/63/54 13/64/55 14/65/56
s 7
f 29/42/57 30/43/58 16/44/59 15/45/60
f 30/11/58 28/12/61 14/10/62 17/9/63 16/13/59
s 6
f 31/36/32 32/35/31 12/40/64 11/41/65
f 32/35/31 27/39/35 12/40/64
