# This file uses centimeters as units for non-parametric coordinates.

mtllib Wall_LP.mtl
g default
v -0.000001 -0.000002 0.000000
v 0.500000 0.000000 0.000000
v 1.000000 -0.000002 0.000000
v 0.000003 0.999998 0.000000
v 0.499997 0.999998 0.000000
v 1.000000 0.500000 0.000000
v -0.000000 0.999997 -3.000000
v 0.499999 0.999998 -3.000000
v 1.000000 0.500000 -3.000000
v 0.000001 -0.000001 -3.000000
v 0.500002 0.000001 -3.000000
v 1.000000 -0.000003 -3.000000
vt 0.124971 0.695290
vt 0.124971 0.001857
vt 0.240544 0.001857
vt 0.240544 0.695290
vt 0.356115 0.695290
vt 0.356116 0.001857
vt 0.600516 0.695290
vt 0.600515 0.001857
vt 0.831660 0.001857
vt 0.831659 0.695290
vt 0.001993 0.001857
vt 0.117564 0.001857
vt 0.117564 0.695290
vt 0.001992 0.695290
vt 0.362744 0.001857
vt 0.478316 0.001857
vt 0.478316 0.695290
vt 0.362743 0.695290
vt 0.593888 0.001857
vt 0.593888 0.695290
vt 0.766864 0.930426
vt 0.766864 0.814853
vt 0.998008 0.814854
vt 0.998008 0.930425
vt 0.766864 0.699281
vt 0.882436 0.699281
vt 0.529584 0.699282
vt 0.645156 0.699281
vt 0.645157 0.930425
vt 0.529584 0.930425
vt 0.760728 0.814853
vt 0.760728 0.930426
vn -0.000000 0.000000 1.000000
vn -0.000000 0.000000 1.000000
vn -0.000000 0.000000 1.000000
vn -0.000000 0.000000 1.000000
vn 0.000000 0.000000 1.000000
vn 0.000000 0.000000 1.000000
vn -0.000003 1.000000 -0.000000
vn 0.447212 0.894428 0.000000
vn 0.447212 0.894428 0.000000
vn -0.000003 1.000000 -0.000000
vn 0.707104 0.707109 0.000000
vn 0.707104 0.707109 0.000000
vn 0.000000 0.000000 -1.000000
vn 0.000000 0.000000 -1.000000
vn 0.000000 0.000000 -1.000000
vn 0.000000 0.000000 -1.000000
vn 0.000000 0.000000 -1.000000
vn 0.000000 0.000000 -1.000000
vn 0.000005 -1.000000 -0.000000
vn -0.000001 -1.000000 -0.000000
vn -0.000001 -1.000000 -0.000000
vn 0.000005 -1.000000 -0.000000
vn -0.000006 -1.000000 -0.000000
vn -0.000006 -1.000000 -0.000000
vn 1.000000 0.000000 0.000000
vn 1.000000 0.000000 0.000000
vn 1.000000 0.000000 0.000000
vn 1.000000 0.000000 0.000000
vn -1.000000 0.000001 0.000000
vn -1.000000 0.000001 0.000000
vn -1.000000 0.000001 0.000000
vn -1.000000 0.000001 0.000000
s 1
g Wall2
usemtl initialShadingGroup
f 1/21/1 2/22/2 5/23/3 4/24/4
f 2/22/2 3/25/5 6/26/6 5/23/3
s 2
f 4/11/7 5/12/8 8/13/9 7/14/10
f 5/5/8 6/4/11 9/3/12 8/6/9
s 3
f 7/27/13 8/28/14 11/29/15 10/30/16
f 8/28/14 9/31/17 12/32/18 11/29/15
s 4
f 10/15/19 11/16/20 2/17/21 1/18/22
f 11/16/20 12/19/23 3/20/24 2/17/21
s off
f 3/1/25 12/2/26 9/3/27 6/4/28
f 10/7/29 1/8/30 4/9/31 7/10/32
